Coordinates
version=1
nRows=30
nColumns=23
inDegrees=yes

Units are S.I. units (second, meters, Newtons, ...)
If the header above contains a line with 'inDegrees', this indicates whether rotational values are in degrees (yes) or radians (no).

endheader
time	pelvis_tilt	pelvis_list	pelvis_rotation	pelvis_tx	pelvis_ty	pelvis_tz	hip_flexion_r	hip_adduction_r	hip_rotation_r	knee_angle_r	knee_angle_r_beta	ankle_angle_r	subtalar_angle_r	mtp_angle_r	hip_flexion_l	hip_adduction_l	hip_rotation_l	knee_angle_l	knee_angle_l_beta	ankle_angle_l	subtalar_angle_l	mtp_angle_l
     15.00000000	     -6.48786946	     -1.46850513	      2.98080409	      2.17237062	      1.04907175	      0.98633212	     33.73634253	     -5.58838157	    -14.39241125	     61.91453059	      1.08061241	      4.64261841	     -5.63199048	      0.00000000	     -7.27226212	     -2.30192423	     -7.51173709	     25.82768467	      0.45077814	      3.89186658	      7.01731945	      0.00000000
     15.00666667	     -7.17898120	     -1.72330257	      2.62542623	      2.17409347	      1.05241405	      0.98669195	     34.49529927	     -4.89597574	    -14.91066225	     58.36850506	      1.01872259	      4.73824879	     -4.93732931	      0.00000000	     -8.05311343	     -2.63428905	     -8.10316998	     24.69773498	      0.43105679	      0.15072213	      7.09470607	      0.00000000
     15.01333333	     -7.49312940	     -1.87773774	      2.20948604	      2.17598931	      1.05618061	      0.98700929	     34.71728521	     -4.22004482	    -15.33726375	     54.62204956	      0.95333461	      4.81652435	     -3.98860043	      0.00000000	     -9.35358608	     -2.62681474	     -7.96063845	     23.25624710	      0.40589808	     -3.69935408	      5.93022734	      0.00000000
     15.02000000	     -8.23091208	     -1.93248903	      1.81255946	      2.17756613	      1.05902603	      0.98738134	     35.36691448	     -3.64281583	    -15.72424835	     50.84008639	      0.88732690	      4.89009913	     -2.61950410	      0.00000000	     -9.89906922	     -2.57857607	     -7.93347898	     22.38627111	      0.39071414	     -7.29733694	      4.67757877	      0.00000000
     15.02666667	     -8.97983213	     -1.98819459	      1.40707392	      2.17905213	      1.06149387	      0.98776350	     35.94449065	     -3.02673137	    -16.10578408	     46.94491074	      0.81934326	      4.88801627	     -1.07565358	      0.00000000	    -10.23189087	     -2.62496564	     -8.25565426	     21.92872113	      0.38272838	    -10.51734091	      3.80962520	      0.00000000
     15.03333333	     -9.85221861	     -2.04012529	      0.95646490	      2.18027713	      1.06333002	      0.98826867	     36.61356221	     -2.31019008	    -16.33981868	     42.98464805	      0.75022364	      4.84486566	      0.57492371	      0.00000000	    -10.16304533	     -2.77514266	     -8.98168243	     22.04460954	      0.38475102	    -13.15467838	      3.19386793	      0.00000000
     15.04000000	    -10.68603854	     -2.02870714	      0.52263648	      2.18141734	      1.06480541	      0.98881876	     37.17156510	     -1.60296936	    -16.48742222	     38.98141030	      0.68035396	      4.78690258	      2.46088449	      0.00000000	    -10.01514860	     -2.85702663	     -9.59849810	     22.42019904	      0.39130629	    -15.37680916	      2.34249003	      0.00000000
     15.04666667	    -11.54406593	     -1.95074060	      0.04463603	      2.18239339	      1.06572014	      0.98948571	     37.73382501	     -0.85565397	    -16.38613465	     35.01745579	      0.61116990	      4.72162225	      4.38136652	      0.00000000	     -9.68837141	     -2.90520855	    -10.33568015	     23.16206184	      0.40425424	    -17.08113053	      1.48631788	      0.00000000
     15.05333333	    -12.27081735	     -1.94879227	     -0.35012171	      2.18333692	      1.06627039	      0.99012794	     38.05938289	     -0.04720906	    -16.29963532	     31.04544979	      0.54184532	      4.60288271	      6.29004999	      0.00000000	     -9.35663200	     -3.09442158	    -11.05407856	     24.24771660	      0.42320249	    -18.21979317	      0.49169623	      0.00000000
     15.06000000	    -12.97422219	     -1.83965823	     -0.79984069	      2.18423891	      1.06629018	      0.99091769	     38.36215437	      0.75933248	    -15.81800042	     27.25081005	      0.47561636	      4.63519433	      8.12015618	      0.00000000	     -8.98933540	     -3.15524226	    -11.70497792	     25.51660702	      0.44534881	    -18.78117071	     -0.41541914	      0.00000000
     15.06666667	    -13.42275606	     -1.97549212	     -1.10937205	      2.18509511	      1.06612947	      0.99166443	     38.22095999	      1.82828521	    -15.04761879	     23.31659250	      0.40695131	      4.25792968	      8.87674088	      0.00000000	     -8.72146719	     -3.62802040	    -12.53539711	     27.21163416	      0.47493261	    -18.75522815	     -1.00518005	      0.00000000
     15.07333333	    -13.85088668	     -1.94025503	     -1.44286372	      2.18588884	      1.06535289	      0.99241384	     38.15652776	      2.63208727	    -14.21455859	     19.91475389	      0.34757803	      4.20264978	     10.01377339	      0.00000000	     -8.43248926	     -3.84764565	    -13.03829990	     29.00341637	      0.50620511	    -18.46907774	     -1.96148813	      0.00000000
     15.08000000	    -13.97329006	     -2.07006513	     -1.76685106	      2.18684891	      1.06463938	      0.99316690	     37.44740606	      3.79973999	    -12.16542481	     16.13433153	      0.28159721	      3.65422918	      8.86954551	      0.00000000	     -8.43714598	     -4.29996020	    -13.69376749	     30.92300265	      0.53970821	    -17.74426731	     -2.28437134	      0.00000000
     15.08666667	    -14.05793317	     -2.08436310	     -1.93905570	      2.18769860	      1.06333824	      0.99366597	     36.96862234	      4.39549380	    -11.25872695	     13.37123607	      0.23337209	      3.48674662	      9.18584303	      0.00000000	     -8.35793487	     -4.57780373	    -13.84950906	     32.99163058	      0.57581258	    -17.07446995	     -3.21291943	      0.00000000
     15.09333333	    -13.89665861	     -2.09700208	     -2.18798590	      2.18858293	      1.06197460	      0.99415543	     36.05116673	      5.11788912	     -9.24278290	     10.60519935	      0.18509565	      3.00661869	      7.61042490	      0.00000000	     -8.50786039	     -4.84272702	    -14.09119474	     35.11967043	      0.61295388	    -16.34351551	     -3.82103398	      0.00000000
     15.10000000	    -13.59085835	     -2.14462865	     -2.37120769	      2.18934621	      1.06024606	      0.99457029	     35.28855308	      5.56357842	     -8.35982725	      8.88323940	      0.15504178	      2.72336751	      6.88848923	      0.00000000	     -8.68644228	     -5.16902363	    -14.21953964	     37.43695486	      0.65339812	    -15.68068279	     -4.63192543	      0.00000000
     15.10666667	    -13.25825429	     -2.12824585	     -2.58127288	      2.18978854	      1.05808354	      0.99500476	     34.90189926	      5.78025818	     -8.31942069	      8.35874029	      0.14588754	      2.82584642	      6.84806044	      0.00000000	     -8.75959500	     -5.41804857	    -14.26347850	     39.90861503	      0.69653673	    -15.13709161	     -5.65723582	      0.00000000
     15.11333333	    -12.77734343	     -2.23537854	     -2.73496479	      2.19016932	      1.05577641	      0.99533567	     34.41113222	      6.03629271	     -8.48234511	      8.31178729	      0.14506805	      2.56475106	      6.26370685	      0.00000000	     -8.88727972	     -5.81601597	    -14.24485233	     42.50122455	      0.74178630	    -14.84047836	     -6.53001289	      0.00000000
     15.12000000	    -12.26227473	     -2.41357645	     -2.88024416	      2.19030082	      1.05315358	      0.99560715	     33.98215208	      6.32108411	     -8.63960588	      8.81754859	      0.15389525	      2.05337830	      5.01051648	      0.00000000	     -8.91049265	     -6.33052544	    -14.24761358	     45.26943395	      0.79010067	    -14.58124922	     -7.35287514	      0.00000000
     15.12666667	    -11.54830051	     -2.66434713	     -3.09855584	      2.19022464	      1.05041229	      0.99587065	     33.58923031	      6.59363015	     -9.17848448	     10.19701706	      0.17797152	      1.60406400	      3.84519648	      0.00000000	     -9.08189387	     -6.89943208	    -14.31139040	     48.07023903	      0.83898394	    -14.52547104	     -8.37259364	      0.00000000
     15.13333333	    -11.08107722	     -2.73999387	     -3.31744653	      2.18968583	      1.04686341	      0.99603334	     33.90584845	      6.48987120	    -10.38452014	     12.82382956	      0.22381805	      1.54093332	      3.27699985	      0.00000000	     -8.79657693	     -7.27443689	    -14.22190655	     51.04282672	      0.89086539	    -14.47687881	     -9.45431205	      0.00000000
     15.14000000	    -10.49599335	     -2.85298747	     -3.58280118	      2.18899960	      1.04306991	      0.99606727	     34.14735026	      6.38569052	    -11.25614382	     15.88131950	      0.27718131	      1.36053749	      2.06718293	      0.00000000	     -8.57146950	     -7.67058436	    -14.19025660	     54.03120633	      0.94302245	    -14.41280011	    -10.53153449	      0.00000000
     15.14666667	     -9.49369606	     -3.24984460	     -3.88351825	      2.18839974	      1.03955234	      0.99606769	     33.79941662	      6.54458245	    -11.93300136	     18.98666441	      0.33137981	      0.95930424	      0.51802790	      0.00000000	     -8.80876540	     -8.40508713	    -14.38658230	     56.95644879	      0.99407756	    -14.31633060	    -11.57257827	      0.00000000
     15.15333333	     -9.18320823	     -3.01037881	     -4.12972520	      2.18705058	      1.03459033	      0.99567350	     34.68259607	      5.89219806	    -12.50310777	     23.28982646	      0.40648415	      1.89201226	     -0.55321707	      0.00000000	     -7.96746747	     -8.30844065	    -13.99929608	     60.06759600	      1.04837732	    -14.03954698	    -12.58993576	      0.00000000
     15.16000000	     -8.58823229	     -2.95909133	     -4.41153666	      2.18580082	      1.02985320	      0.99521120	     35.05889954	      5.36815837	    -13.11516687	     27.44741735	      0.47904780	      2.91864458	     -0.90352144	      0.00000000	     -7.43758856	     -8.43578972	    -13.81397851	     63.07185205	      1.10081148	    -13.74353235	    -13.78931822	      0.00000000
     15.16666667	     -7.78941757	     -3.20348515	     -4.69975598	      2.18448206	      1.02545278	      0.99478932	     34.92577166	      5.35456115	    -12.95906598	     31.12773711	      0.54328150	      4.07314734	     -2.28043702	      0.00000000	     -7.08322226	     -8.90688143	    -13.72049444	     66.04639212	      1.15272700	    -13.17772710	    -14.53860105	      0.00000000
     15.17333333	     -7.36777427	     -3.23728954	     -5.04579318	      2.18273119	      1.02057453	      0.99438798	     35.15539725	      5.24385222	    -12.47710510	     34.76248274	      0.60671978	      5.58540077	     -3.36133225	      0.00000000	     -6.14888118	     -9.13481872	    -13.53797247	     69.05360657	      1.20521280	    -12.46346832	    -15.16616616	      0.00000000
     15.18000000	     -7.02332914	     -3.38548925	     -5.38444549	      2.18089938	      1.01584910	      0.99399868	     35.23169579	      5.30805434	    -11.93619109	     38.02729234	      0.66370146	      7.31473659	     -4.22623599	      0.00000000	     -5.04035597	     -9.49447001	    -13.31481870	     72.00768566	      1.25677120	    -11.63119735	    -15.60373970	      0.00000000
     15.18666667	     -6.80158988	     -3.62759663	     -5.72913195	      2.17892022	      1.01133142	      0.99369938	     35.18319155	      5.53222743	    -11.36940014	     40.86756899	      0.71327364	      9.20061210	     -4.87918896	      0.00000000	     -3.69988079	     -9.97569093	    -13.04915507	     74.90295877	      1.30730325	    -10.69275213	    -15.77217441	      0.00000000
     15.19333333	     -6.77151763	     -3.92484913	     -6.02295467	      2.17688843	      1.00706210	      0.99333482	     35.07395492	      5.83589060	    -10.82701272	     43.26606012	      0.75513520	     11.21220406	     -5.25795998	      0.00000000	     -2.02981523	    -10.52301398	    -12.65469618	     77.71706612	      1.35641869	     -9.66079931	    -15.68660004	      0.00000000
